<svg width="114" height="32" viewBox="0 0 114 32" fill="none" xmlns="http://www.w3.org/2000/svg">
<path d="M61.5798 20.6825C61.5798 24.147 57.2438 23.9413 57.2438 23.9413H52.9312V17.6546H57.2672C61.708 17.6294 61.5798 20.6825 61.5798 20.6825ZM52.9312 8.08389H56.2152C59.6274 8.26433 59.4993 10.8032 59.4993 10.8032C59.4993 13.9591 55.728 14.0115 55.728 14.0115H52.9312V8.08389ZM60.7841 15.2692C60.7841 15.2692 63.7343 14.0115 63.7091 10.6498C63.7091 10.6498 64.171 5.15889 56.8829 4.49125H48.8261V27.4834H58.0648C58.0648 27.4834 65.7896 27.5087 65.7896 20.9911C65.8131 21.0163 65.9935 16.5774 60.7841 15.2692ZM39.9211 -7.62939e-06H73.8699V31.9999H39.9211V-7.62939e-06Z" fill="#353535"/>
<path d="M22.4392 20.6825C22.4392 24.147 18.1032 23.9413 18.1032 23.9413H13.7671V17.6546H18.1032C22.5692 17.6294 22.4392 20.6825 22.4392 20.6825ZM13.7671 8.08389H17.0512C20.4634 8.26433 20.3353 10.8032 20.3353 10.8032C20.3353 13.9591 16.564 14.0115 16.564 14.0115H13.7671V8.08389ZM21.6182 15.2692C21.6182 15.2692 24.5685 14.0115 24.5432 10.6498C24.5432 10.6498 25.0052 5.15889 17.717 4.49125H9.68545V27.4834H18.9242C18.9242 27.4834 26.649 27.5087 26.649 20.9911C26.649 21.0163 26.8276 16.5774 21.6182 15.2692ZM0.75708 -7.62939e-06H34.7058V31.9999H0.75708V-7.62939e-06Z" fill="#353535"/>
<path d="M106.083 6.15855V10.4188C106.083 10.4188 101.926 7.87818 97.3588 7.82766C97.3588 7.82766 88.813 7.64721 88.4286 16.0126C88.4286 16.0126 88.1201 23.7103 97.2559 24.147C97.2559 24.147 101.105 24.609 106.289 21.2978V25.7115C106.289 25.7115 99.3094 29.8689 91.2255 26.6606C91.2255 26.6606 84.4246 24.1723 84.1683 16.0379C84.1683 16.0379 83.8868 7.67247 92.9451 4.87559C92.9451 4.87559 95.3577 3.95172 99.719 4.36313C99.719 4.33787 102.31 4.5941 106.083 6.15855ZM79.0618 31.9999H113.011V-7.62939e-06H79.0618V31.9999Z" fill="#353535"/>
</svg>
