<svg width="150" height="32" viewBox="0 0 150 32" fill="none" xmlns="http://www.w3.org/2000/svg">
<g clip-path="url(#clip0_6_7450)">
<path d="M19.4756 12.0169C19.2309 11.2368 18.5161 9.48331 18.3214 8.18869C17.8917 5.32134 19.3908 3.43295 20.7675 3.00048C22.3125 2.5694 22.916 3.34534 23.5139 5.14891C24.2871 7.89528 24.3733 11.4941 24.1133 16.6461C23.7754 23.6838 20.2544 32.1829 11.5019 32.0063C3.94681 31.8409 0.603809 26.9475 0.256159 19.4815C0.0920683 15.962 0.343767 12.4438 1.80112 7.46837C2.57429 4.80404 3.26403 3.85568 5.66281 3.34534C7.54846 3.00048 7.37881 4.97231 6.9519 7.29734C6.01185 12.4438 5.5752 14.9288 5.92285 20.7678C6.25938 26.9475 9.09759 29.3517 12.1875 29.3517C16.8224 29.4407 18.8805 25.5791 19.7426 19.9946C20.4226 15.5337 19.9095 13.388 19.4756 12.0169ZM118.297 18.1118C120.102 18.1118 120.62 20.2463 120.188 21.5395C119.757 22.8244 118.215 24.2901 115.814 24.717C115.296 23.4265 115.038 18.1118 118.297 18.1118ZM84.7476 21.0209C84.7476 19.5677 83.9703 18.3649 83.0344 18.3649C82.2529 18.3649 80.4576 19.2201 80.4576 21.9678C80.4576 24.1204 81.2224 25.1411 81.5729 25.5791C84.0551 24.8032 84.7476 22.7382 84.7476 21.0209ZM58.0509 3.51638C57.9299 2.13972 56.8508 1.20248 55.3907 1.20248C53.7623 1.20248 52.2284 2.91149 52.3911 5.05853C52.4954 6.47412 53.3298 7.63802 54.9693 7.63802C56.8508 7.63941 58.2233 5.49377 58.0509 3.51638ZM72.0083 8.55719C71.8595 6.15707 71.2783 5.07382 69.9892 5.16281C68.2801 5.26572 67.4903 10.643 67.8393 16.2957C68.0618 19.9835 68.6111 20.5522 69.1228 20.5161C70.0684 20.4591 72.3365 13.8706 72.0083 8.55719ZM128.941 17.5917C127.877 22.004 124.652 28.4952 119.841 28.4952C118.727 28.4952 116.752 28.0627 116.752 26.9475C116.752 25.7446 124.31 25.5791 124.31 19.825C124.31 17.6821 122.337 14.6743 119.417 14.6743C115.555 14.6743 111.788 18.8836 111.788 24.7184C111.788 29.9497 115.038 31.667 118.299 31.667C123.965 31.667 127.399 27.0295 129.2 23.1707C130.062 25.746 130.568 31.667 132.722 31.667C133.577 31.667 134.182 31.2374 135.212 28.9235C137.781 23.1693 140.273 16.5613 143.708 16.5613C144.991 16.5613 144.222 18.8835 147.311 18.8835C148.767 18.8835 149.793 17.6821 149.793 16.3027C149.793 14.3267 147.993 12.7873 145.25 12.7873C137.18 12.7873 135.47 24.8894 134.181 24.8894C132.034 24.8894 132.721 15.1902 131.173 15.1902C129.799 15.1888 129.124 16.8255 128.941 17.5917ZM60.2842 27.8889C61.5705 27.8889 63.7829 27.4717 65.524 24.6836C64.5283 22.4726 63.8177 18.0047 63.719 16.3778C63.2072 8.05798 66.4126 0.231854 69.921 0.0149254C72.4937 -0.140818 74.5517 2.29407 74.7881 6.23912C75.4209 16.6058 71.968 20.9333 70.2395 24.6669C70.5315 26.1145 72.9873 28.5786 75.3041 28.5786C76.1593 28.5786 77.1939 28.1489 77.4539 27.8013C77.2815 27.2047 77.1063 26.4329 77.1063 25.3135C77.1063 19.3063 80.9694 14.2404 84.3179 14.2404C86.9781 14.2404 88.5231 17.7586 88.5231 20.0808C88.5231 22.823 86.2036 25.0591 82.773 27.2047C83.3765 27.8013 84.4862 28.2351 85.4346 28.2351C90.3309 28.2351 92.8924 22.3113 94.7891 16.902C95.1312 15.8702 95.7361 14.4143 96.9348 14.4143C98.9943 14.4143 99.8565 27.9751 103.28 27.9751C104.744 27.9751 105.943 24.9687 105.943 22.6576C105.943 20.9388 105.342 20.7664 105.342 18.2773C105.342 15.5337 106.803 13.2184 108.781 13.2184C109.981 13.2184 110.415 14.4143 110.415 15.8702C110.415 21.3643 106.462 31.5794 100.634 31.5794C96.2493 31.5794 96.5914 24.0259 95.0478 24.0259C93.3234 24.0259 90.9205 31.6643 82.4323 31.6643C81.0528 31.6643 79.5968 30.9787 78.3981 29.6021C76.3414 30.9787 74.6199 31.5794 72.6452 31.5794C69.4733 31.5794 68.0966 28.3172 66.813 28.3172C65.2653 28.3172 63.5535 31.6643 58.3985 31.6643C54.2796 31.6643 53.5926 26.1771 52.1367 26.1771C50.8462 26.1771 48.8729 31.6643 46.7286 31.6643C43.1186 31.6643 42.3538 22.1403 39.1721 22.1403C36.6843 22.1403 28.8205 31.8131 26.6859 31.592C25.8279 31.503 25.4663 30.8619 25.5567 30.0025C25.6777 28.815 26.6998 25.6362 27.1142 24.1329C27.8081 21.5229 28.445 18.6625 28.801 17.7502C29.1542 16.8297 30.1068 16.1733 30.8716 16.2443C31.2568 16.2804 31.3722 16.9993 31.4918 17.5931C31.9257 19.7151 32.5306 21.8788 33.2134 21.8788C34.419 21.8788 38.4003 14.2391 40.7171 14.2391C43.5539 14.2391 43.8932 26.2577 47.7535 26.2577C49.044 26.2577 49.991 24.7156 50.8462 22.8216C50.9338 19.6414 51.7918 15.1026 54.3658 15.1026C56.1694 15.1026 57.0288 19.1325 55.7369 22.6562C55.7341 26.8585 58.4778 27.8889 60.2842 27.8889Z" fill="#353535"/>
</g>
<defs>
<clipPath id="clip0_6_7450">
<rect width="149.579" height="31.9999" fill="white" transform="translate(0.210449 6.10352e-05)"/>
</clipPath>
</defs>
</svg>
