<svg width="18" height="18" viewBox="0 0 18 18" fill="none" xmlns="http://www.w3.org/2000/svg">
<path fill-rule="evenodd" clip-rule="evenodd" d="M5 1.94586C4.13805 1.94586 3.3114 2.28827 2.7019 2.89776C2.09241 3.50726 1.75 4.33391 1.75 5.19586V13.1959C1.75 14.0578 2.09241 14.8845 2.7019 15.494C3.3114 16.1035 4.13805 16.4459 5 16.4459H13C13.862 16.4459 14.6886 16.1035 15.2981 15.494C15.9076 14.8845 16.25 14.0578 16.25 13.1959V5.19586C16.25 4.33391 15.9076 3.50726 15.2981 2.89776C14.6886 2.28827 13.862 1.94586 13 1.94586H5ZM1.64124 1.8371C2.53204 0.946307 3.74022 0.445862 5 0.445862H13C14.2598 0.445862 15.468 0.946307 16.3588 1.8371C17.2496 2.7279 17.75 3.93608 17.75 5.19586V13.1959C17.75 14.4556 17.2496 15.6638 16.3588 16.5546C15.468 17.4454 14.2598 17.9459 13 17.9459H5C3.74022 17.9459 2.53204 17.4454 1.64124 16.5546C0.750445 15.6638 0.25 14.4556 0.25 13.1959V5.19586C0.25 3.93608 0.750445 2.7279 1.64124 1.8371ZM13.5 3.94586C13.9142 3.94586 14.25 4.28165 14.25 4.69586V4.70586C14.25 5.12008 13.9142 5.45586 13.5 5.45586C13.0858 5.45586 12.75 5.12008 12.75 4.70586V4.69586C12.75 4.28165 13.0858 3.94586 13.5 3.94586ZM6.34835 6.54421C7.05161 5.84095 8.00544 5.44586 9 5.44586C9.99456 5.44586 10.9484 5.84095 11.6517 6.54421C12.3549 7.24747 12.75 8.2013 12.75 9.19586C12.75 10.1904 12.3549 11.1443 11.6517 11.8475C10.9484 12.5508 9.99456 12.9459 9 12.9459C8.00544 12.9459 7.05161 12.5508 6.34835 11.8475C5.64509 11.1443 5.25 10.1904 5.25 9.19586C5.25 8.2013 5.64509 7.24747 6.34835 6.54421ZM9 6.94586C8.40326 6.94586 7.83097 7.18291 7.40901 7.60487C6.98705 8.02683 6.75 8.59912 6.75 9.19586C6.75 9.7926 6.98705 10.3649 7.40901 10.7869C7.83097 11.2088 8.40326 11.4459 9 11.4459C9.59674 11.4459 10.169 11.2088 10.591 10.7869C11.0129 10.3649 11.25 9.7926 11.25 9.19586C11.25 8.59912 11.0129 8.02683 10.591 7.60487C10.169 7.18291 9.59674 6.94586 9 6.94586Z" fill="#353535"/>
</svg>
