<svg width="18" height="14" viewBox="0 0 18 14" fill="none" xmlns="http://www.w3.org/2000/svg">
<path fill-rule="evenodd" clip-rule="evenodd" d="M0.149902 1.56274C0.149902 1.14853 0.485689 0.812744 0.899902 0.812744H17.0999C17.5141 0.812744 17.8499 1.14853 17.8499 1.56274C17.8499 1.97696 17.5141 2.31274 17.0999 2.31274H0.899902C0.485689 2.31274 0.149902 1.97696 0.149902 1.56274ZM0.149902 6.96274C0.149902 6.54853 0.485689 6.21274 0.899902 6.21274H17.0999C17.5141 6.21274 17.8499 6.54853 17.8499 6.96274C17.8499 7.37696 17.5141 7.71274 17.0999 7.71274H0.899902C0.485689 7.71274 0.149902 7.37696 0.149902 6.96274ZM5.5499 12.3627C5.5499 11.9485 5.88569 11.6127 6.2999 11.6127H17.0999C17.5141 11.6127 17.8499 11.9485 17.8499 12.3627C17.8499 12.777 17.5141 13.1127 17.0999 13.1127H6.2999C5.88569 13.1127 5.5499 12.777 5.5499 12.3627Z" fill="#555555"/>
</svg>

