<svg width="22" height="15" viewBox="0 0 22 15" fill="none" xmlns="http://www.w3.org/2000/svg">
<path fill-rule="evenodd" clip-rule="evenodd" d="M0.25 1.19586C0.25 0.781648 0.585786 0.445862 1 0.445862H5C5.41421 0.445862 5.75 0.781648 5.75 1.19586V6.19586C5.75 7.05782 6.09241 7.88447 6.7019 8.49396C7.13134 8.92339 7.66857 9.22024 8.25 9.35815V1.19586C8.25 0.781648 8.58579 0.445862 9 0.445862H13C13.4142 0.445862 13.75 0.781648 13.75 1.19586V4.75712C14.344 4.5432 14.8794 4.18228 15.3032 3.70236C15.9133 3.01147 16.25 2.12153 16.25 1.19984C16.25 0.785635 16.5858 0.449862 17 0.449862H21C21.2247 0.449862 21.4375 0.550591 21.58 0.724338C21.7224 0.898084 21.7795 1.12654 21.7355 1.34687L21.3935 3.05787L21.3934 3.05796C21.1662 4.19404 20.6825 5.26322 19.9792 6.18394C19.568 6.72224 19.0882 7.20149 18.5534 7.61027C19.0591 7.92822 19.5176 8.32028 19.9125 8.77556C20.628 9.60039 21.1086 10.6024 21.3039 11.6767L21.3039 11.6768L21.7379 14.0658C21.7777 14.2846 21.7183 14.5097 21.5758 14.6805C21.4333 14.8512 21.2224 14.9499 21 14.9499H17C16.5858 14.9499 16.25 14.6141 16.25 14.1999C16.25 13.2782 15.9133 12.3883 15.3032 11.6974C14.8866 11.2255 14.3621 10.8687 13.78 10.6536V14.2039C13.78 14.4369 13.6717 14.6566 13.4869 14.7986C13.325 14.923 13.1204 14.9753 12.9207 14.9459H9C6.67936 14.9459 4.45376 14.024 2.81282 12.383C1.17187 10.7421 0.25 8.51651 0.25 6.19586V1.19586ZM12.28 13.4459V9.70386C12.28 9.48877 12.3723 9.28403 12.5336 9.14166C12.6948 8.99929 12.9094 8.933 13.1229 8.95963C14.4003 9.11902 15.5755 9.73953 16.4276 10.7045C17.1127 11.4804 17.551 12.436 17.6965 13.4499H20.1015L19.8281 11.945C19.6809 11.1353 19.3187 10.3801 18.7794 9.75845C18.2402 9.13679 17.5437 8.67153 16.7629 8.41141C16.4751 8.31552 16.2734 8.05568 16.2519 7.75307C16.2304 7.45047 16.3933 7.16469 16.6646 7.02903C17.4966 6.61308 18.2226 6.01261 18.7872 5.27342C19.3518 4.53426 19.7401 3.67591 19.9225 2.76386C19.9226 2.76383 19.9226 2.76379 19.9226 2.76376L20.0853 1.94986H17.6965C17.551 2.96373 17.1127 3.91933 16.4276 4.6952C15.5755 5.66019 14.4003 6.2807 13.1229 6.44009C13.0921 6.44393 13.061 6.44586 13.03 6.44586H13C12.5858 6.44586 12.25 6.11008 12.25 5.69586V1.94586H9.75V10.1959C9.75 10.3948 9.67098 10.5855 9.53033 10.7262C9.38968 10.8668 9.19891 10.9459 9 10.9459C7.74022 10.9459 6.53204 10.4454 5.64124 9.55462C4.75044 8.66382 4.25 7.45564 4.25 6.19586V1.94586H1.75V6.19586C1.75 8.11868 2.51384 9.96275 3.87348 11.3224C5.23311 12.682 7.07718 13.4459 9 13.4459H12.28Z" fill="#353535"/>
</svg>
