<svg width="20" height="18" viewBox="0 0 20 18" fill="none" xmlns="http://www.w3.org/2000/svg">
<path fill-rule="evenodd" clip-rule="evenodd" d="M19.4959 0.63323C19.7062 0.818603 19.7956 1.1058 19.7276 1.37778L15.7276 17.3778C15.6621 17.6399 15.4606 17.8465 15.2002 17.9187C14.9398 17.9908 14.6607 17.9173 14.4697 17.7262L10.0812 13.3377L7.6 16.6459C7.43263 16.869 7.15522 16.9809 6.87987 16.9362C6.60451 16.8915 6.37671 16.6977 6.28849 16.433L4.38673 10.7278L0.664594 8.8667C0.399261 8.73403 0.237057 8.45744 0.250811 8.1611C0.264564 7.86477 0.451689 7.60439 0.728169 7.49687L18.7282 0.496872C18.9895 0.39526 19.2856 0.447857 19.4959 0.63323ZM10.5395 11.6747C10.5339 11.669 10.5283 11.6633 10.5225 11.6577L10.0607 11.1959L13.5303 7.72621C13.8232 7.43331 13.8232 6.95844 13.5303 6.66554C13.2374 6.37265 12.7626 6.37265 12.4697 6.66554L8.46967 10.6655C8.17678 10.9584 8.17678 11.4333 8.46967 11.7262L9.00972 12.2663L7.25886 14.6007L5.71152 9.9587C5.64862 9.77 5.51333 9.61401 5.33541 9.52505L2.84865 8.28167L17.9208 2.42027L14.5937 15.7289L10.5395 11.6747Z" fill="#353535"/>
</svg>
