<svg width="10" height="10" viewBox="0 0 10 10" fill="none" xmlns="http://www.w3.org/2000/svg">
<path fill-rule="evenodd" clip-rule="evenodd" d="M0.646447 0.497033C0.841709 0.30177 1.15829 0.30177 1.35355 0.497033L5 4.14348L8.64645 0.497033C8.84171 0.30177 9.15829 0.30177 9.35355 0.497033C9.54882 0.692295 9.54882 1.00888 9.35355 1.20414L5.70711 4.85059L9.35355 8.49703C9.54882 8.6923 9.54882 9.00888 9.35355 9.20414C9.15829 9.3994 8.84171 9.3994 8.64645 9.20414L5 5.55769L1.35355 9.20414C1.15829 9.3994 0.841709 9.3994 0.646447 9.20414C0.451184 9.00888 0.451184 8.6923 0.646447 8.49703L4.29289 4.85059L0.646447 1.20414C0.451184 1.00888 0.451184 0.692295 0.646447 0.497033Z" fill="#0F0F0F"/>
</svg>
