<svg width="17" height="17" viewBox="0 0 17 17" fill="none" xmlns="http://www.w3.org/2000/svg">
<path fill-rule="evenodd" clip-rule="evenodd" d="M3.16667 1.95825C2.8904 1.95825 2.62545 2.068 2.4301 2.26335C2.23875 2.45469 2.12954 2.71281 2.12514 2.98294C2.31806 6.07341 3.63275 8.9874 5.82263 11.1773C8.01252 13.3672 10.9265 14.6819 14.017 14.8748C14.2871 14.8704 14.5452 14.7612 14.7366 14.5698C14.9319 14.3745 15.0417 14.1095 15.0417 13.8333V10.9231L11.7621 9.61123L10.7859 11.2381C10.6186 11.5171 10.2653 11.621 9.97355 11.4771C8.04056 10.5238 6.47611 8.95936 5.5228 7.02637C5.37892 6.73464 5.48286 6.38134 5.76177 6.21399L7.38869 5.23784L6.07685 1.95825H3.16667ZM1.54621 1.37947C1.97598 0.949695 2.55888 0.708252 3.16667 0.708252H6.5C6.75557 0.708252 6.98538 0.863846 7.0803 1.10113L8.74696 5.2678C8.86089 5.55262 8.75127 5.87802 8.48823 6.03585L6.91508 6.97974C7.66174 8.2676 8.73232 9.33818 10.0202 10.0848L10.9641 8.51169C11.1219 8.24865 11.4473 8.13903 11.7321 8.25295L15.8988 9.91962C16.1361 10.0145 16.2917 10.2444 16.2917 10.4999V13.8333C16.2917 14.441 16.0502 15.0239 15.6205 15.4537C15.1907 15.8835 14.6078 16.1249 14 16.1249C13.9874 16.1249 13.9747 16.1245 13.9621 16.1238C10.5591 15.917 7.34946 14.4719 4.93875 12.0612C2.52804 9.65046 1.08295 6.44082 0.876151 3.03783C0.875384 3.02521 0.875 3.01256 0.875 2.99992C0.875 2.39213 1.11644 1.80924 1.54621 1.37947Z" fill="#555555"/>
</svg>
