<svg width="12" height="12" viewBox="0 0 12 12" fill="none" xmlns="http://www.w3.org/2000/svg">
<path fill-rule="evenodd" clip-rule="evenodd" d="M3.45877 0.0999452L3.47992 0.0999453H8.51992L8.54106 0.0999452C9.02716 0.0999397 9.42227 0.0999353 9.74287 0.126129C10.0739 0.153179 10.3693 0.210636 10.6441 0.35063C11.0769 0.571139 11.4287 0.922994 11.6492 1.35577C11.7892 1.63052 11.8467 1.92592 11.8737 2.25699C11.8999 2.57759 11.8999 2.9727 11.8999 3.45879V3.47995V8.51995V8.54111C11.8999 9.02719 11.8999 9.4223 11.8737 9.7429C11.8467 10.074 11.7892 10.3694 11.6492 10.6441C11.4287 11.0769 11.0769 11.4288 10.6441 11.6493C10.3693 11.7893 10.0739 11.8467 9.74287 11.8738C9.42227 11.9 9.02716 11.9 8.54108 11.8999H8.51992H3.47991H3.45876C2.97267 11.9 2.57756 11.9 2.25696 11.8738C1.92589 11.8467 1.63049 11.7893 1.35574 11.6493C0.922964 11.4288 0.571109 11.0769 0.3506 10.6441C0.210605 10.3694 0.153149 10.074 0.126099 9.7429C0.0999048 9.4223 0.0999092 9.02719 0.0999147 8.54109L0.0999148 8.51995V3.47995L0.0999147 3.4588C0.0999092 2.9727 0.0999048 2.57759 0.126099 2.25699C0.153149 1.92592 0.210605 1.63052 0.3506 1.35577C0.571109 0.922994 0.922964 0.571139 1.35574 0.35063C1.63049 0.210636 1.92589 0.153179 2.25696 0.126129C2.57756 0.0999353 2.97267 0.0999397 3.45877 0.0999452ZM2.33839 1.12281C2.06916 1.14481 1.92001 1.18544 1.80973 1.24164C1.56512 1.36627 1.36624 1.56515 1.24161 1.80976C1.18541 1.92004 1.14478 2.06919 1.12278 2.33843C1.1003 2.6135 1.09991 2.96765 1.09991 3.47995V8.51995C1.09991 9.03224 1.1003 9.3864 1.12278 9.66147C1.14478 9.9307 1.18541 10.0798 1.24161 10.1901C1.36624 10.4347 1.56512 10.6336 1.80973 10.7583C1.92001 10.8144 2.06916 10.8551 2.33839 10.8771C2.61346 10.8996 2.96762 10.8999 3.47991 10.8999H8.51992C9.03221 10.8999 9.38637 10.8996 9.66144 10.8771C9.93067 10.8551 10.0798 10.8144 10.1901 10.7583C10.4347 10.6336 10.6336 10.4347 10.7582 10.1901C10.8144 10.0798 10.8551 9.9307 10.8771 9.66147C10.8995 9.3864 10.8999 9.03224 10.8999 8.51995V3.47995C10.8999 2.96765 10.8995 2.6135 10.8771 2.33843C10.8551 2.06919 10.8144 1.92004 10.7582 1.80976C10.6336 1.56515 10.4347 1.36627 10.1901 1.24164C10.0798 1.18544 9.93067 1.14481 9.66144 1.12281C9.38637 1.10033 9.03221 1.09995 8.51992 1.09995H3.47992C2.96762 1.09995 2.61346 1.10033 2.33839 1.12281ZM5.49992 3.59995C5.49992 3.3238 5.72377 3.09995 5.99992 3.09995H6.00592C6.28206 3.09995 6.50592 3.3238 6.50592 3.59995C6.50592 3.87609 6.28206 4.09995 6.00592 4.09995H5.99992C5.72377 4.09995 5.49992 3.87609 5.49992 3.59995ZM5.99992 5.49995C6.27606 5.49995 6.49992 5.7238 6.49992 5.99995V8.39995C6.49992 8.67609 6.27606 8.89995 5.99992 8.89995C5.72377 8.89995 5.49992 8.67609 5.49992 8.39995V5.99995C5.49992 5.7238 5.72377 5.49995 5.99992 5.49995Z" fill="#8E8E8E"/>
</svg>
