<svg width="20" height="16" viewBox="0 0 20 16" fill="none" xmlns="http://www.w3.org/2000/svg">
<path fill-rule="evenodd" clip-rule="evenodd" d="M1.67183 0.498228C1.94905 0.190464 2.42328 0.165707 2.73104 0.442933L5.8768 3.27654C5.92474 3.31031 5.96916 3.35006 6.00885 3.39549L8.6627 5.78602C8.66748 5.79021 8.67221 5.79447 8.6769 5.7988L12.3261 9.08587C12.3308 9.09005 12.3355 9.09429 12.3402 9.09861L14.9879 11.4836C15.0435 11.5213 15.0947 11.567 15.1394 11.6201L18.2732 14.4429C18.581 14.7202 18.6058 15.1944 18.3285 15.5022C18.0513 15.8099 17.5771 15.8347 17.2693 15.5574L14.4631 13.0296C13.2087 13.7102 11.7127 14.1946 10.0002 14.1946C5.19199 14.1946 2.10288 10.396 1.11393 8.98544C1.10702 8.97558 1.09989 8.96548 1.09259 8.95513C0.992362 8.81314 0.859596 8.62503 0.791871 8.35884C0.73627 8.1403 0.736289 7.85986 0.791917 7.64133L1.51874 7.82634L0.791917 7.64133C0.859686 7.3751 0.992823 7.18653 1.09332 7.04419C1.10067 7.03378 1.10786 7.0236 1.11482 7.01367C1.63582 6.27076 2.68786 4.93825 4.22466 3.80716L1.72712 1.55745C1.41936 1.28022 1.3946 0.805992 1.67183 0.498228ZM5.366 4.83525C3.87698 5.86451 2.84468 7.15946 2.34292 7.87493C2.3123 7.9186 2.2907 7.94943 2.27263 7.97623C2.26628 7.98565 2.26105 7.99356 2.25675 8.00019C2.26096 8.00668 2.26605 8.01439 2.27223 8.02355C2.29018 8.05018 2.31164 8.08083 2.34214 8.12433C3.29667 9.48577 5.99248 12.6946 10.0002 12.6946C11.213 12.6946 12.3046 12.4026 13.268 11.9532L11.7784 10.6114C11.2596 10.9126 10.6483 11.0835 10.0002 11.0835C8.231 11.0835 6.65981 9.77487 6.65981 8.00019C6.65981 7.41833 6.83394 6.87994 7.12874 6.42308L5.366 4.83525ZM8.27295 7.45375C8.19878 7.62648 8.15981 7.8109 8.15981 8.00019C8.15981 8.80284 8.90813 9.58352 10.0002 9.58352C10.1952 9.58352 10.3816 9.55747 10.5556 9.50991L8.27295 7.45375ZM10.0002 3.30575C9.66105 3.30575 9.33213 3.32854 9.01342 3.37098C8.60283 3.42567 8.22566 3.13715 8.17097 2.72656C8.11629 2.31597 8.40481 1.93879 8.8154 1.88411C9.19853 1.83309 9.59361 1.80575 10.0002 1.80575C14.8084 1.80575 17.8975 5.60441 18.8864 7.01494C18.8933 7.0248 18.9005 7.0349 18.9078 7.04524C19.008 7.18725 19.1408 7.37536 19.2085 7.64158C19.2641 7.86013 19.2641 8.1406 19.2084 8.35913C19.1406 8.62539 19.0073 8.81423 18.9066 8.95676C18.8993 8.96722 18.892 8.97744 18.885 8.98741C18.6105 9.37879 18.1945 9.92536 17.6437 10.5178C17.3617 10.8212 16.8872 10.8385 16.5838 10.5565C16.2804 10.2745 16.2631 9.79997 16.5451 9.49658C17.0403 8.96385 17.4137 8.47293 17.657 8.12607C17.6877 8.0823 17.7094 8.05136 17.7275 8.02448C17.734 8.01491 17.7393 8.0069 17.7436 8.00018C17.7394 7.99369 17.7343 7.98599 17.7281 7.97684C17.7102 7.95021 17.6887 7.91955 17.6582 7.87605C16.7037 6.51461 14.0079 3.30575 10.0002 3.30575Z" fill="#B3B3B3"/>
</svg>
